<svg width="56" height="77" viewBox="0 0 56 77" fill="none" xmlns="http://www.w3.org/2000/svg">
<path d="M9.74106 4.30099L10.1017 4.12066C10.282 3.85017 10.5698 3.31307 10.6427 2.94853C10.7316 2.50412 10.6452 0.745434 10.47 0.609145C10.4674 0.607507 10.4649 0.605882 10.4624 0.60427C10.4649 0.605552 10.4675 0.60718 10.47 0.609145C11.1349 1.03508 12.6108 2.3426 13.2575 4.21083C14.0689 6.55509 15.9624 -0.748189 16.6837 0.0632861C17.405 0.874762 15.4214 3.76001 16.0525 4.57148C16.6837 5.38296 19.5689 2.85837 21.4624 3.0387C23.7613 3.25764 18.2165 4.57148 19.7493 6.82558C20.9514 6.97585 23.2296 7.76329 22.7247 9.71083C22.0935 12.1453 18.9378 11.9649 17.4952 11.8748C21.4624 14.189 29.2345 20.9453 28.5853 29.4567C27.7738 40.0961 22.364 40.5469 21.823 41.6289C21.3668 42.5413 2.61811 44.6944 3.79024 67.0551C0.484228 61.6453 -3.69337 47.3453 6.04434 33.4239C18.2165 16.0223 13.7083 12.9567 13.7083 12.1453C13.7083 11.3338 13.7984 16.7436 10.3722 16.1125C6.94598 15.4813 7.48696 13.8584 7.30663 12.9567C7.1263 12.0551 0.724664 11.8748 4.87221 5.20263C5.86401 5.83378 7.64925 6.21247 6.85581 2.67804C7.61037 3.42941 9.24379 4.80591 9.74106 4.30099Z" fill="#FE3D2B"/>
<path d="M3.51974 16.1124C2.94269 15.896 4.30116 13.7982 5.05253 12.7764L6.58532 13.8583C6.22466 13.6419 6.01428 14.6698 5.95417 15.2108C3.8804 14.9403 4.24105 16.3829 3.51974 16.1124Z" fill="black" stroke="black"/>
<path d="M6.85583 15.1206C5.53342 17.7354 4.06075 23.037 8.74927 23.3255C10.5225 23.025 12.6263 20.9632 6.85583 15.1206Z" fill="#FE3D2B"/>
<circle cx="9.56077" cy="11.8749" r="0.5" fill="black" stroke="black" stroke-width="0.983606"/>
<path d="M28.7501 23.3159C20.3762 28.3337 20.5522 37.757 21.687 41.8415C31.1439 35.1684 34.7344 42.4383 35.3475 46.9073C36.4585 38.7898 30.5279 36.4401 27.4238 36.28C36.3639 30.1177 42.8043 36.5982 44.907 40.6087C42.2716 29.3582 32.6682 29.658 28.1959 31.2143C36.1844 20.2042 46.8731 25.3446 51.2189 29.2911C49.1657 24.6467 39.2174 17.0438 28.7501 23.3159Z" fill="black" stroke="black"/>
<circle cx="22.6312" cy="60.8605" r="16.1393" fill="black"/>
<path d="M21.7521 48.0647V46.3442H23.9079V48.0647C27.5298 48.0647 30.3036 49.9285 31.2378 50.8604L28.8664 53.6562C26.4518 51.7637 24.5547 51.8641 23.9079 52.1508V58.6025C30.1168 59.1187 31.8127 63.4055 31.8846 65.4844C32.402 70.8178 26.7824 72.5813 23.9079 72.7963V75.377H21.7521V72.7963C16.923 72.2802 14.1347 70.0006 13.3442 68.9253L15.7157 66.1295C18.3027 68.7102 20.8179 69.0687 21.7521 68.9253V62.0434C21.7521 61.3983 15.0689 62.9037 14.2066 55.5917C13.5167 49.7421 18.9495 48.1364 21.7521 48.0647Z" fill="white" stroke="black"/>
<path d="M21.7241 58.3514V52.1686C20.621 52.058 18.2355 52.4528 17.8846 55.1256C17.5232 57.8783 20.2937 58.4231 21.7241 58.3514Z" fill="black"/>
<path d="M21.7241 52.1147V58.3514C20.2937 58.4231 17.5232 57.8783 17.8846 55.1256C18.246 52.3728 20.7657 52.0364 21.8196 52.1798" stroke="black"/>
<path d="M24.1639 69.0657V62.4097C25.4622 62.2989 28.1073 62.7085 28.3021 65.2333C28.4968 67.7582 25.6245 68.8403 24.1639 69.0657Z" fill="black" stroke="black"/>
</svg>
