<svg width="34" height="47" viewBox="0 0 34 47" fill="none" xmlns="http://www.w3.org/2000/svg">
<path d="M6.3651 2.62528L6.60076 2.51521C6.71859 2.3501 6.90662 2.02226 6.95426 1.79975C7.01233 1.52849 6.95591 0.455006 6.84141 0.371816C6.83974 0.370816 6.83808 0.369824 6.83642 0.36884C6.8381 0.369622 6.83976 0.370616 6.84141 0.371816C7.2759 0.631805 8.24025 1.4299 8.66281 2.57025C9.19306 4.00116 10.4303 -0.456687 10.9016 0.0386292C11.3729 0.533945 10.0768 2.29507 10.4892 2.79039C10.9016 3.2857 12.7869 1.74472 14.0242 1.85479C15.5263 1.98843 11.9032 2.79039 12.9048 4.16626C13.6903 4.25799 15.1789 4.73863 14.849 5.92739C14.4366 7.41334 12.3745 7.30327 11.4319 7.24823C14.0242 8.6608 19.1027 12.7848 18.6785 17.9801C18.1483 24.4742 14.6133 24.7494 14.2598 25.4098C13.9617 25.9667 1.71075 27.281 2.47666 40.9297C0.316409 37.6276 -2.41336 28.8991 3.94955 20.4016C11.9032 9.77985 8.95739 7.90865 8.95739 7.41334C8.95739 6.91802 9.01631 10.2201 6.77751 9.83488C4.53871 9.44964 4.8922 8.459 4.77437 7.90865C4.65654 7.3583 0.473517 7.24823 3.18364 3.17563C3.83172 3.56088 4.99825 3.79203 4.47979 1.63465C4.97284 2.09327 6.04017 2.93348 6.3651 2.62528Z" fill="#FE3D2B"/>
<path d="M2.29981 9.83488C1.92275 9.7028 2.81042 8.42232 3.30138 7.79858L4.30295 8.45901C4.06729 8.32692 3.92982 8.95432 3.89054 9.28453C2.53548 9.11943 2.77114 9.99999 2.29981 9.83488Z" fill="black" stroke="black"/>
<path d="M4.47989 9.22949C3.61579 10.8255 2.6535 14.0616 5.71712 14.2377C6.87579 14.0542 8.2505 12.7958 4.47989 9.22949Z" fill="#FE3D2B"/>
<mask id="path-4-inside-1_12_347" fill="white">
<ellipse cx="6.24719" cy="7.24821" rx="0.648074" ry="0.605386"/>
</mask>
<ellipse cx="6.24719" cy="7.24821" rx="0.648074" ry="0.605386" fill="black"/>
<path d="M5.89527 7.24821C5.89527 6.96718 6.1181 6.8536 6.24719 6.8536V8.8536C7.09213 8.8536 7.89527 8.19793 7.89527 7.24821H5.89527ZM6.24719 6.8536C6.37629 6.8536 6.59912 6.96718 6.59912 7.24821H4.59912C4.59912 8.19793 5.40226 8.8536 6.24719 8.8536V6.8536ZM6.59912 7.24821C6.59912 7.52923 6.37629 7.64282 6.24719 7.64282V5.64282C5.40226 5.64282 4.59912 6.29849 4.59912 7.24821H6.59912ZM6.24719 7.64282C6.1181 7.64282 5.89527 7.52923 5.89527 7.24821H7.89527C7.89527 6.29849 7.09213 5.64282 6.24719 5.64282V7.64282Z" fill="black" mask="url(#path-4-inside-1_12_347)"/>
<path d="M18.2723 17.0414C13.4085 19.1949 13.5108 23.2392 14.1698 24.9922C19.6627 22.1283 21.7481 25.2483 22.1043 27.1664C22.7495 23.6825 19.3049 22.674 17.5019 22.6053C22.6946 19.9606 26.4354 22.7419 27.6567 24.4631C26.126 19.6346 20.5481 19.7633 17.9504 20.4312C22.5903 15.7059 28.7986 17.9121 31.3228 19.6058C30.1303 17.6125 24.352 14.3495 18.2723 17.0414Z" fill="black" stroke="black"/>
<ellipse cx="14.7879" cy="37.1487" rx="10.5459" ry="9.85129" fill="black"/>
<path d="M14.2134 29.3382V28.2881H15.6221V29.3382C17.9887 29.3382 19.8013 30.4759 20.4117 31.0447L18.8621 32.7512C17.2844 31.5961 16.0447 31.6573 15.6221 31.8323V35.7704C19.6792 36.0855 20.7873 38.7021 20.8343 39.971C21.1724 43.2265 17.5004 44.3029 15.6221 44.4342V46.0094H14.2134V44.4342C11.0579 44.1191 9.23601 42.7277 8.71948 42.0713L10.2691 40.3648C11.9595 41.9401 13.603 42.1588 14.2134 42.0713V37.8707C14.2134 37.4769 9.84644 38.3958 9.28296 33.9327C8.83218 30.3621 12.3821 29.382 14.2134 29.3382Z" fill="white" stroke="black"/>
<path d="M14.1951 35.6171V31.8431C13.4743 31.7757 11.9156 32.0167 11.6863 33.6481C11.4502 35.3283 13.2605 35.6609 14.1951 35.6171Z" fill="black"/>
<path d="M14.1951 31.8103V35.6171C13.2605 35.6609 11.4502 35.3283 11.6863 33.6481C11.9224 31.9678 13.5689 31.7625 14.2576 31.85" stroke="black"/>
<path d="M15.7896 42.1571V38.0943C16.6379 38.0267 18.3663 38.2767 18.4935 39.8178C18.6208 41.359 16.7439 42.0195 15.7896 42.1571Z" fill="black" stroke="black"/>
</svg>
