<svg width="641" height="316" viewBox="0 0 641 316" fill="none" xmlns="http://www.w3.org/2000/svg">
<path d="M38.7825 17.6002L40.2184 16.8623C40.9364 15.7554 42.082 13.5575 42.3723 12.0658C42.7261 10.2472 42.3823 3.05042 41.6847 2.49271C41.6745 2.486 41.6644 2.47935 41.6543 2.47275C41.6645 2.478 41.6747 2.48466 41.6847 2.49271C44.3321 4.23571 50.2078 9.58625 52.7825 17.2313C56.0133 26.8243 63.5517 -3.06169 66.4235 0.258975C69.2953 3.57964 61.3979 15.3865 63.9107 18.7071C66.4235 22.0278 77.9107 11.6968 85.4492 12.4348C94.602 13.3307 72.5261 18.7071 78.6286 27.9312C83.415 28.5462 92.485 31.7684 90.4748 39.738C87.962 49.7 75.3979 48.9621 69.6543 48.5932C85.4492 58.0632 116.393 85.7109 113.808 120.541C110.577 164.079 89.0389 165.923 86.885 170.351C85.0688 174.085 10.4236 182.896 15.0903 274.399C1.92788 252.261 -14.7046 193.743 24.0646 136.775C72.5261 65.5655 54.5774 53.0207 54.5774 49.7C54.5774 46.3794 54.9364 68.5172 41.2954 65.9344C27.6543 63.3517 29.8082 56.7104 29.0902 53.0207C28.3723 49.3311 2.88514 48.5932 19.3979 21.2899C23.3467 23.8726 30.4543 25.4223 27.2954 10.9589C30.2995 14.0336 36.8027 19.6664 38.7825 17.6002Z" fill="#FE3D2B"/>
<path d="M14.0134 65.9346C11.716 65.0491 17.1245 56.4645 20.1159 52.283L26.2185 56.7105C24.7826 55.825 23.945 60.0312 23.7057 62.245C15.4493 61.1381 16.8852 67.0415 14.0134 65.9346Z" fill="black" stroke="black"/>
<path d="M27.2954 61.8757C22.0304 72.5757 16.1672 94.2707 34.8338 95.4514C41.8936 94.2215 50.2697 85.7845 27.2954 61.8757Z" fill="#FE3D2B"/>
<path d="M41.5131 48.593C41.5131 50.5714 39.9563 52.1516 38.0644 52.1516C36.1726 52.1516 34.6157 50.5714 34.6157 48.593C34.6157 46.6146 36.1726 45.0344 38.0644 45.0344C39.9563 45.0344 41.5131 46.6146 41.5131 48.593Z" fill="black" stroke="black"/>
<path d="M111.533 115.917C81.8979 130.355 82.5207 157.468 86.5365 169.22C120.004 150.02 132.711 170.938 134.881 183.796C138.812 160.44 117.824 153.679 106.839 153.219C138.478 135.488 161.27 154.134 168.712 165.673C159.385 133.302 125.399 134.165 109.572 138.643C137.843 106.964 175.67 121.754 191.049 133.109C183.783 119.746 148.576 97.8704 111.533 115.917Z" fill="black" stroke="black"/>
<path d="M194.224 255.592C194.096 255.592 193.712 255.528 193.072 255.4C192.496 255.272 191.92 255.112 191.344 254.92C190.832 254.728 190.544 254.504 190.48 254.248C190.352 253.032 190.672 251.304 191.44 249.064C192.208 246.824 193.232 244.328 194.512 241.576C195.856 238.76 197.232 236.008 198.64 233.32C198.384 233.32 198.096 233.32 197.776 233.32C197.52 233.256 197.232 233.224 196.912 233.224C196.144 233.096 195.76 232.744 195.76 232.168C195.76 231.848 196.112 231.688 196.816 231.688C197.328 231.688 197.776 231.72 198.16 231.784C198.544 231.784 198.96 231.784 199.408 231.784C200.688 229.352 201.872 227.176 202.96 225.256C204.048 223.272 204.816 221.768 205.264 220.744C205.648 220.04 205.904 219.464 206.032 219.016C206.16 218.504 206.224 218.12 206.224 217.864C206.224 217.48 206.16 217.16 206.032 216.904C206.16 216.136 206.608 215.112 207.376 213.832C208.208 212.552 209.232 211.272 210.448 209.992C211.664 208.712 212.976 207.656 214.384 206.824C215.792 205.928 217.104 205.48 218.32 205.48C218.704 205.48 219.28 205.608 220.048 205.864C220.88 206.056 221.68 206.376 222.448 206.824C223.216 207.272 223.696 207.912 223.888 208.744C223.952 208.872 223.984 209.064 223.984 209.32C223.984 209.512 223.888 209.608 223.696 209.608C223.568 209.608 223.376 209.576 223.12 209.512C222.928 209.384 222.768 209.32 222.64 209.32C221.232 209.32 219.696 209.992 218.032 211.336C216.432 212.616 214.768 214.344 213.04 216.52C211.312 218.696 209.584 221.128 207.856 223.816C206.192 226.44 204.592 229.096 203.056 231.784C206.256 231.656 209.648 231.272 213.232 230.632C216.816 229.928 220.368 229 223.888 227.848C227.408 226.696 230.672 225.288 233.68 223.624C236.688 221.96 239.216 220.072 241.264 217.96C243.504 215.592 244.624 213.16 244.624 210.664C244.624 208.808 243.92 207.08 242.512 205.48C241.104 203.88 238.896 202.664 235.888 201.832C234.096 201.32 232.048 200.936 229.744 200.68C227.504 200.424 225.072 200.296 222.448 200.296C218.352 200.296 214.128 200.648 209.776 201.352C205.488 202.056 201.456 203.144 197.68 204.616C193.904 206.024 190.736 207.816 188.176 209.992C185.616 212.168 184.08 214.76 183.568 217.768C183.376 219.304 183.664 220.52 184.432 221.416C185.2 222.312 186.128 223.016 187.216 223.528C188.368 223.976 189.264 224.392 189.904 224.776C190.352 225.16 190.576 225.48 190.576 225.736C190.576 226.184 190.16 226.344 189.328 226.216C188.432 226.024 187.312 225.576 185.968 224.872C184.688 224.168 183.536 223.208 182.512 221.992C181.552 220.712 181.072 219.24 181.072 217.576C181.072 217.32 181.072 217.064 181.072 216.808C181.136 216.552 181.2 216.296 181.264 216.04C181.264 215.976 181.232 215.784 181.168 215.464C181.168 215.08 181.168 214.76 181.168 214.504C181.552 212.52 182.512 210.664 184.048 208.936C185.648 207.144 187.44 205.576 189.424 204.232C191.472 202.824 193.36 201.704 195.088 200.872C198.096 199.4 201.712 198.248 205.936 197.416C210.16 196.52 214.576 196.072 219.184 196.072C222 196.072 224.784 196.264 227.536 196.648C230.352 197.032 233.072 197.64 235.696 198.472C239.344 199.688 242.16 201.576 244.144 204.136C246.192 206.632 247.12 209.256 246.928 212.008C246.736 214.632 245.808 217 244.144 219.112C242.544 221.224 240.464 223.08 237.904 224.68C235.408 226.216 232.624 227.56 229.552 228.712C226.544 229.8 223.504 230.696 220.432 231.4C217.488 232.04 214.352 232.52 211.024 232.84C207.76 233.16 204.816 233.352 202.192 233.416C200.656 236.168 199.28 238.76 198.064 241.192C196.912 243.624 196.048 245.576 195.472 247.048C194.96 248.456 194.704 249.448 194.704 250.024C194.704 250.92 195.056 251.368 195.76 251.368C196.656 251.368 197.616 250.76 198.64 249.544C199.344 248.712 199.984 247.944 200.56 247.24C201.2 246.472 201.744 246.152 202.192 246.28C202.256 246.344 202.288 246.44 202.288 246.568C202.288 246.888 202.064 247.336 201.616 247.912C201.168 248.424 200.912 248.712 200.848 248.776C200.4 249.416 199.792 250.28 199.024 251.368C198.32 252.456 197.552 253.416 196.72 254.248C195.952 255.144 195.12 255.592 194.224 255.592ZM286.68 268.744C283.992 268.744 281.208 268.36 278.328 267.592C275.512 266.888 272.856 266.024 270.36 265C267.864 264.04 265.688 263.24 263.832 262.6C260.44 261.384 257.272 260.2 254.328 259.048C251.384 257.896 249.304 257.192 248.088 256.936C241.88 255.336 237.496 254.536 234.936 254.536C234.488 254.856 234.072 255.112 233.688 255.304C233.304 255.56 232.888 255.72 232.44 255.784C232.248 255.848 231.96 255.88 231.576 255.88C230.424 255.88 229.848 255.496 229.848 254.728C229.848 254.28 230.2 253.832 230.904 253.384C231.416 253.128 231.992 253 232.632 253C233.336 252.936 234.04 252.872 234.744 252.808C236.216 251.528 237.592 249.896 238.872 247.912C240.216 245.928 241.176 244.424 241.752 243.4C242.264 242.504 242.744 241.64 243.192 240.808C243.704 239.912 244.216 239.048 244.728 238.216C243.704 238.472 242.648 238.728 241.56 238.984C240.472 239.176 239.416 239.272 238.392 239.272C236.536 239.272 234.84 238.888 233.304 238.12C231.832 237.352 231.096 235.944 231.096 233.896C231.096 232.552 231.672 231.304 232.824 230.152C234.04 229 235.288 228.424 236.568 228.424C237.336 228.424 237.72 228.744 237.72 229.384C237.72 229.768 237.432 229.96 236.856 229.96C236.152 229.96 235.512 230.376 234.936 231.208C234.36 232.04 234.072 232.904 234.072 233.8C234.072 234.44 234.264 235.08 234.648 235.72C235.096 236.296 235.832 236.648 236.856 236.776C237.816 236.968 238.84 237.064 239.928 237.064C241.784 237.064 243.672 236.808 245.592 236.296C246.488 234.504 247.32 232.744 248.088 231.016C248.92 229.224 249.72 227.464 250.488 225.736C252.088 222.216 253.72 218.792 255.384 215.464C257.048 212.136 258.68 209.16 260.28 206.536C261.88 203.912 263.32 201.96 264.6 200.68C267.032 198.376 269.464 196.744 271.896 195.784C274.392 194.824 276.632 194.344 278.616 194.344C279 194.344 279.384 194.376 279.768 194.44C280.152 194.44 280.504 194.472 280.824 194.536C283.192 194.92 284.856 195.752 285.816 197.032C286.776 198.248 287.256 199.72 287.256 201.448C287.256 202.344 287.16 203.272 286.968 204.232C286.136 208.264 284.44 212.04 281.88 215.56C279.384 219.08 276.344 222.28 272.76 225.16C269.176 227.976 265.336 230.376 261.24 232.36C257.208 234.344 253.272 235.784 249.432 236.68C248.6 238.088 247.704 239.496 246.744 240.904C245.848 242.248 244.856 243.592 243.768 244.936C243.128 245.896 242.2 247.144 240.984 248.68C239.768 250.152 238.52 251.528 237.24 252.808C238.136 252.872 239.096 252.936 240.12 253C241.208 253.128 242.36 253.288 243.576 253.48C248.888 254.312 254.2 255.528 259.512 257.128C264.888 258.792 270.2 260.296 275.448 261.64C276.92 262.024 279 262.504 281.688 263.08C284.44 263.656 287 263.944 289.368 263.944C291.672 263.944 293.432 263.528 294.648 262.696C295.608 262.12 296.088 261.32 296.088 260.296C296.088 259.528 295.736 258.888 295.032 258.376C294.648 258.056 294.456 257.8 294.456 257.608C294.456 256.968 294.84 256.872 295.608 257.32C296.44 257.896 297.016 258.568 297.336 259.336C297.72 260.104 297.912 260.904 297.912 261.736C297.912 262.696 297.72 263.56 297.336 264.328C297.016 265.16 296.6 265.736 296.088 266.056C293.464 267.848 290.328 268.744 286.68 268.744ZM250.872 234.472C257.976 231.4 264.216 227.656 269.592 223.24C274.968 218.824 279.224 213 282.36 205.768C283.384 203.528 283.896 201.576 283.896 199.912C283.896 198.568 283.48 197.512 282.648 196.744C282.2 196.168 281.464 195.88 280.44 195.88C278.328 195.88 276.152 196.616 273.912 198.088C271.992 199.496 270.168 201.352 268.44 203.656C266.776 205.96 265.208 208.392 263.736 210.952C262.264 213.512 260.952 215.944 259.8 218.248C258.712 220.488 257.784 222.28 257.016 223.624C256.504 224.648 255.704 226.152 254.616 228.136C253.592 230.12 252.344 232.232 250.872 234.472ZM305.867 256.264C301.387 256.264 297.867 255.496 295.307 253.96C292.747 252.488 291.467 250.376 291.467 247.624C291.467 244.808 292.299 242.216 293.963 239.848C295.627 237.416 297.771 235.336 300.395 233.608C303.083 231.816 305.867 230.44 308.747 229.48C311.691 228.456 314.411 227.944 316.907 227.944C318.187 227.944 318.827 228.136 318.827 228.52C318.827 229.096 318.155 229.384 316.811 229.384C314.443 229.384 311.851 229.96 309.035 231.112C306.283 232.264 303.819 233.864 301.643 235.912C299.915 237.448 298.603 239.016 297.707 240.616C296.875 242.152 296.459 243.592 296.459 244.936C296.459 246.92 297.387 248.584 299.243 249.928C301.099 251.208 303.883 251.848 307.595 251.848C309.771 251.848 311.979 251.688 314.219 251.368C316.459 250.984 318.475 250.568 320.267 250.12C322.123 249.672 323.531 249.32 324.491 249.064C326.859 248.296 329.227 247.368 331.595 246.28C334.027 245.192 336.203 243.976 338.123 242.632C340.043 241.224 341.451 239.816 342.347 238.408C342.859 237.64 343.211 236.904 343.403 236.2C343.659 235.496 343.787 234.824 343.787 234.184C343.787 232.392 342.987 230.888 341.387 229.672C339.787 228.392 337.739 227.24 335.243 226.216C332.747 225.192 330.091 224.232 327.275 223.336C324.459 222.376 321.803 221.384 319.307 220.36C316.811 219.336 314.763 218.184 313.163 216.904C311.563 215.56 310.763 213.96 310.763 212.104C310.763 209.992 311.531 208.104 313.067 206.44C314.667 204.712 316.683 203.208 319.115 201.928C321.611 200.584 324.267 199.496 327.083 198.664C329.899 197.768 332.587 197.096 335.147 196.648C337.707 196.2 339.819 195.976 341.483 195.976C348.523 195.976 352.043 197.736 352.043 201.256C352.043 202.664 351.467 204.296 350.315 206.152C349.803 207.112 349.067 208.04 348.107 208.936C347.147 209.768 346.411 210.184 345.899 210.184C345.515 210.184 345.323 209.96 345.323 209.512C345.323 209.32 345.675 208.936 346.379 208.36C347.083 207.72 347.787 206.952 348.491 206.056C349.195 205.16 349.547 204.264 349.547 203.368C349.547 202.024 348.779 201 347.243 200.296C345.771 199.592 343.819 199.24 341.387 199.24C340.235 199.24 338.571 199.432 336.395 199.816C334.219 200.136 331.851 200.68 329.291 201.448C326.731 202.216 324.267 203.24 321.899 204.52C317.483 206.952 315.275 209.032 315.275 210.76C315.275 212.04 316.523 213.256 319.019 214.408C320.875 215.24 323.019 216.104 325.451 217C327.883 217.896 330.347 218.856 332.843 219.88C335.339 220.904 337.643 222.056 339.755 223.336C341.931 224.616 343.659 226.056 344.939 227.656C346.283 229.192 346.955 230.952 346.955 232.936C346.955 235.624 345.483 238.376 342.539 241.192C340.235 243.368 337.547 245.384 334.475 247.24C331.467 249.096 328.267 250.696 324.875 252.04C321.547 253.384 318.251 254.408 314.987 255.112C311.723 255.88 308.683 256.264 305.867 256.264ZM358.266 254.056C356.474 254.056 354.906 253.64 353.562 252.808C351.322 251.464 350.202 249.032 350.202 245.512C350.202 244.04 350.458 242.344 350.97 240.424C351.418 238.824 352.218 237.096 353.37 235.24C354.522 233.32 355.866 231.496 357.402 229.768C359.002 228.04 360.73 226.632 362.586 225.544C364.442 224.456 366.298 223.912 368.154 223.912C368.922 223.912 369.594 224.008 370.17 224.2C370.938 224.456 371.578 224.936 372.09 225.64C372.666 226.28 372.954 227.112 372.954 228.136C372.954 229.224 372.666 229.832 372.09 229.96C371.578 230.088 371.322 229.96 371.322 229.576C371.322 229.448 371.322 229.32 371.322 229.192C371.386 229.064 371.418 228.968 371.418 228.904C371.418 228.392 371.258 227.944 370.938 227.56C370.682 227.112 370.17 226.888 369.402 226.888C368.378 226.888 367.098 227.432 365.562 228.52C364.09 229.608 362.554 231.08 360.954 232.936C359.418 234.728 358.042 236.712 356.826 238.888C355.674 241.064 354.906 243.24 354.522 245.416C354.458 245.736 354.394 246.056 354.33 246.376C354.33 246.632 354.33 246.92 354.33 247.24C354.33 248.712 354.65 249.96 355.29 250.984C355.994 251.944 357.082 252.424 358.554 252.424C360.346 252.424 362.074 251.752 363.738 250.408C365.402 249 366.874 247.336 368.154 245.416C369.498 243.496 370.49 241.8 371.13 240.328C371.642 239.176 371.994 238.184 372.186 237.352C372.378 236.52 372.474 235.816 372.474 235.24C372.474 234.728 372.41 234.28 372.281 233.896C372.218 233.512 372.122 233.192 371.994 232.936C371.866 232.552 371.802 232.264 371.802 232.072C371.802 231.56 371.994 231.144 372.378 230.824C372.826 230.504 373.274 230.344 373.722 230.344C374.106 230.344 374.522 230.472 374.97 230.728C375.482 230.856 376.186 230.952 377.082 231.016C377.978 231.08 378.938 231.112 379.962 231.112C381.05 231.112 382.138 231.08 383.226 231.016C384.378 230.952 385.37 230.824 386.202 230.632C386.33 230.568 386.522 230.536 386.778 230.536C387.226 230.536 387.45 230.664 387.45 230.92C387.45 231.176 387.226 231.4 386.778 231.592C384.538 232.616 382.522 233.16 380.73 233.224C379.002 233.288 377.498 233.32 376.218 233.32C376.346 234.92 375.994 236.648 375.161 238.504C374.33 240.296 373.466 241.896 372.57 243.304C371.482 244.904 370.234 246.536 368.826 248.2C367.418 249.864 365.85 251.272 364.122 252.424C362.394 253.512 360.442 254.056 358.266 254.056ZM390.578 253.96C387.89 253.96 386.002 253.288 384.914 251.944C383.89 250.6 383.378 248.936 383.378 246.952C383.378 245.096 383.794 242.76 384.626 239.944C385.522 237.128 386.674 234.088 388.082 230.824C389.49 227.56 390.994 224.328 392.594 221.128C394.258 217.864 395.89 214.888 397.49 212.2C399.154 209.448 400.594 207.24 401.81 205.576C403.026 203.976 404.338 202.376 405.746 200.776C407.154 199.176 408.722 197.832 410.45 196.744C412.178 195.656 414.13 195.112 416.306 195.112C417.778 195.112 419.026 195.528 420.05 196.36C421.138 197.128 421.682 198.312 421.682 199.912C421.682 200.552 421.554 201.288 421.298 202.12C421.106 202.952 420.754 203.816 420.242 204.712C416.338 211.496 411.666 217.768 406.226 223.528C400.85 229.288 395.154 234.632 389.138 239.56C388.882 240.52 388.626 241.384 388.37 242.152C388.178 242.92 388.018 243.528 387.89 243.976C387.826 244.296 387.794 244.648 387.794 245.032C387.794 245.352 387.794 245.672 387.794 245.992C387.794 247.528 388.05 248.872 388.562 250.024C389.074 251.176 389.938 251.752 391.154 251.752C392.306 251.752 393.714 251.208 395.378 250.12C397.106 248.968 398.834 247.592 400.562 245.992C402.29 244.328 403.858 242.728 405.266 241.192C406.674 239.656 407.666 238.472 408.242 237.64C408.434 237.448 408.626 237.352 408.818 237.352C409.074 237.352 409.266 237.48 409.394 237.736C409.586 237.992 409.586 238.312 409.394 238.696C408.754 239.784 407.73 241.128 406.322 242.728C404.914 244.328 403.346 245.96 401.618 247.624C399.89 249.224 398.226 250.632 396.626 251.848C394.642 253.256 392.626 253.96 390.578 253.96ZM390.482 235.72C392.914 234.056 395.442 231.912 398.066 229.288C400.69 226.6 403.25 223.688 405.746 220.552C408.306 217.416 410.61 214.312 412.658 211.24C414.77 208.168 416.466 205.384 417.746 202.888C418.13 202.184 418.386 201.576 418.514 201.064C418.706 200.488 418.802 199.976 418.802 199.528C418.802 198.312 418.29 197.704 417.266 197.704C416.37 197.704 415.25 198.184 413.906 199.144C410.45 201.832 407.25 205.288 404.306 209.512C401.362 213.672 398.738 218.056 396.434 222.664C394.13 227.272 392.146 231.624 390.482 235.72ZM432.566 253.96C431.414 253.96 430.39 253.704 429.494 253.192C428.598 252.68 427.926 251.72 427.478 250.312C427.414 249.992 427.318 249.64 427.19 249.256C427.126 248.808 427.094 248.36 427.094 247.912C427.094 246.376 427.286 244.648 427.67 242.728C428.118 240.808 428.598 239.208 429.11 237.928C428.854 238.12 428.406 238.76 427.766 239.848C427.126 240.936 426.326 242.216 425.366 243.688C424.406 245.096 423.318 246.536 422.102 248.008C420.95 249.416 419.67 250.6 418.262 251.56C416.918 252.456 415.478 252.904 413.942 252.904C412.918 252.904 411.67 252.616 410.198 252.04C408.79 251.464 407.766 250.664 407.126 249.64C406.486 248.616 406.166 247.336 406.166 245.8C406.166 243.944 406.582 241.928 407.414 239.752C408.246 237.512 409.302 235.432 410.582 233.512C411.03 232.872 411.542 232.104 412.118 231.208C412.694 230.312 413.27 229.544 413.846 228.904C414.422 228.2 414.838 227.816 415.094 227.752C415.862 227.496 416.758 227.368 417.782 227.368C418.87 227.368 419.67 227.496 420.182 227.752C420.63 227.944 420.854 228.168 420.854 228.424C420.854 228.744 420.598 229.16 420.086 229.672C419.382 230.312 418.422 231.272 417.206 232.552C415.99 233.832 414.774 235.368 413.558 237.16C412.406 238.952 411.446 240.936 410.678 243.112C410.038 244.84 409.718 246.344 409.718 247.624C409.718 249.864 410.614 250.984 412.406 250.984C413.942 250.984 415.574 250.344 417.302 249.064C419.03 247.784 420.694 246.216 422.294 244.36C423.958 242.504 425.43 240.68 426.71 238.888C428.054 237.032 429.078 235.56 429.782 234.472C430.422 233.576 431.126 232.424 431.894 231.016C432.726 229.608 433.526 228.232 434.294 226.888C435.062 225.544 435.67 224.552 436.118 223.912C436.566 223.912 437.238 224.008 438.134 224.2C439.094 224.328 439.894 224.584 440.534 224.968C441.238 225.352 441.43 225.832 441.11 226.408C440.726 227.048 440.118 228.04 439.286 229.384C438.518 230.728 437.718 232.104 436.886 233.512C436.118 234.856 435.51 235.944 435.062 236.776C433.526 239.72 432.534 242.888 432.086 246.28C432.022 246.536 431.99 246.792 431.99 247.048C431.99 247.24 431.99 247.464 431.99 247.72C431.99 250.28 432.854 251.56 434.582 251.56C435.542 251.56 436.822 250.984 438.422 249.832C440.022 248.68 441.654 247.304 443.318 245.704C445.046 244.104 446.582 242.568 447.926 241.096C449.334 239.56 450.294 238.408 450.806 237.64C450.934 237.448 451.126 237.352 451.382 237.352C451.638 237.352 451.83 237.448 451.958 237.64C452.15 237.832 452.15 238.088 451.958 238.408C451.382 239.496 450.39 240.872 448.982 242.536C447.638 244.136 446.134 245.768 444.47 247.432C442.806 249.032 441.174 250.408 439.574 251.56C438.742 252.2 437.686 252.744 436.406 253.192C435.126 253.704 433.846 253.96 432.566 253.96ZM454.294 253.96C453.142 253.96 452.086 253.704 451.126 253.192C450.23 252.68 449.558 251.72 449.11 250.312C449.046 250.12 448.982 249.928 448.918 249.736C448.918 249.544 448.918 249.32 448.918 249.064C448.918 247.784 449.206 246.184 449.782 244.264C450.358 242.344 451.062 240.488 451.894 238.696C451.51 239.208 451.062 239.848 450.55 240.616C450.038 241.32 449.302 242.248 448.342 243.4C448.086 243.656 447.798 243.784 447.478 243.784C447.03 243.784 446.806 243.528 446.806 243.016C446.806 242.632 446.934 242.312 447.19 242.056C448.854 239.944 450.326 238.056 451.606 236.392C452.95 234.728 453.942 233.32 454.582 232.168C454.582 232.04 454.774 231.656 455.158 231.016C455.542 230.312 456.054 229.352 456.694 228.136C456.182 228.2 455.734 228.264 455.35 228.328C455.03 228.328 454.742 228.328 454.486 228.328C454.038 228.328 453.654 228.136 453.334 227.752C453.014 227.368 452.982 226.888 453.238 226.312C453.558 225.416 454.262 224.904 455.35 224.776C456.438 224.648 457.398 224.552 458.23 224.488C458.294 224.36 458.422 224.296 458.614 224.296C459.382 222.888 460.118 221.512 460.822 220.168C461.526 218.824 462.102 217.704 462.55 216.808C463.062 215.912 463.318 215.432 463.318 215.368C464.598 213.32 465.43 211.976 465.814 211.336C466.198 210.632 466.71 210.216 467.35 210.088C468.054 210.024 468.79 210.056 469.558 210.184C470.39 210.312 470.934 210.6 471.19 211.048C471.382 211.304 471.478 211.624 471.478 212.008C471.478 212.584 471.35 213.16 471.094 213.736C470.838 214.248 470.582 214.664 470.326 214.984C470.07 215.432 469.718 215.752 469.27 215.944C468.886 216.072 468.534 216.456 468.214 217.096C467.574 218.312 466.87 219.624 466.102 221.032C465.334 222.44 464.534 223.784 463.702 225.064L464.854 224.968C466.39 224.84 467.83 224.68 469.174 224.488C470.582 224.296 472.182 224.232 473.974 224.296C474.294 224.296 474.614 224.36 474.934 224.488C475.318 224.552 475.51 224.68 475.51 224.872C475.51 225.128 474.678 225.48 473.014 225.928C472.374 226.184 470.966 226.472 468.79 226.792C466.678 227.048 464.502 227.304 462.262 227.56C461.622 228.776 461.046 229.8 460.534 230.632C460.022 231.4 459.67 231.976 459.478 232.36C458.07 235.304 456.79 237.992 455.638 240.424C454.55 242.792 453.942 244.744 453.814 246.28C453.75 246.536 453.718 246.792 453.718 247.048C453.718 247.24 453.718 247.464 453.718 247.72C453.718 250.28 454.55 251.56 456.214 251.56C457.238 251.56 458.55 251.016 460.15 249.928C461.75 248.776 463.382 247.4 465.046 245.8C466.71 244.136 468.214 242.568 469.558 241.096C470.966 239.56 471.926 238.408 472.438 237.64C472.63 237.448 472.822 237.352 473.014 237.352C473.27 237.352 473.462 237.448 473.59 237.64C473.782 237.832 473.814 238.088 473.686 238.408C473.11 239.496 472.118 240.872 470.71 242.536C469.366 244.136 467.83 245.768 466.102 247.432C464.438 249.032 462.806 250.408 461.206 251.56C460.374 252.2 459.318 252.744 458.038 253.192C456.822 253.704 455.574 253.96 454.294 253.96ZM486.414 219.592C485.582 219.592 484.718 219.528 483.822 219.4C482.926 219.208 482.478 218.6 482.478 217.576C482.478 217.384 482.894 216.936 483.726 216.232C484.622 215.528 485.518 214.824 486.414 214.12C487.374 213.352 487.95 212.904 488.142 212.776C489.23 211.88 489.902 211.432 490.158 211.432C490.478 211.432 490.478 211.848 490.158 212.68C489.838 213.512 489.678 214.248 489.678 214.888C489.678 215.208 489.486 215.752 489.102 216.52C488.718 217.288 488.27 217.992 487.758 218.632C487.246 219.272 486.798 219.592 486.414 219.592ZM475.95 253.96C474.798 253.96 473.742 253.704 472.782 253.192C471.886 252.68 471.214 251.72 470.766 250.312C470.702 250.12 470.638 249.928 470.574 249.736C470.574 249.544 470.574 249.32 470.574 249.064C470.574 247.784 470.862 246.184 471.438 244.264C472.014 242.344 472.718 240.488 473.55 238.696C473.166 239.208 472.718 239.848 472.206 240.616C471.694 241.32 470.958 242.248 469.998 243.4C469.742 243.656 469.454 243.784 469.134 243.784C468.686 243.784 468.462 243.528 468.462 243.016C468.462 242.632 468.59 242.312 468.846 242.056C470.51 239.944 471.982 238.056 473.262 236.392C474.606 234.728 475.598 233.32 476.238 232.168C476.238 232.104 476.206 232.072 476.142 232.072C476.142 232.008 476.142 231.944 476.142 231.88C476.142 231.688 476.238 231.4 476.43 231.016C476.942 229.48 477.454 228.2 477.966 227.176C478.542 226.088 479.15 225.48 479.79 225.352C479.918 225.352 480.046 225.352 480.174 225.352C480.302 225.288 480.43 225.256 480.558 225.256C481.262 225.256 481.902 225.416 482.478 225.736C483.054 226.056 483.342 226.536 483.342 227.176C483.342 227.752 483.118 228.456 482.67 229.288C482.286 230.12 481.774 231.144 481.134 232.36C479.726 235.304 478.446 237.992 477.294 240.424C476.206 242.792 475.598 244.744 475.47 246.28C475.406 246.536 475.374 246.792 475.374 247.048C475.374 247.24 475.374 247.464 475.374 247.72C475.374 250.28 476.206 251.56 477.87 251.56C478.894 251.56 480.206 251.016 481.806 249.928C483.406 248.776 485.038 247.4 486.702 245.8C488.366 244.136 489.87 242.568 491.214 241.096C492.622 239.56 493.582 238.408 494.094 237.64C494.286 237.448 494.478 237.352 494.67 237.352C494.926 237.352 495.118 237.448 495.246 237.64C495.438 237.832 495.47 238.088 495.342 238.408C494.766 239.496 493.774 240.872 492.366 242.536C491.022 244.136 489.486 245.768 487.758 247.432C486.094 249.032 484.462 250.408 482.862 251.56C482.03 252.2 480.974 252.744 479.694 253.192C478.478 253.704 477.23 253.96 475.95 253.96ZM500.391 254.056C498.599 254.056 497.031 253.64 495.687 252.808C493.447 251.464 492.327 249.032 492.327 245.512C492.327 244.04 492.583 242.344 493.095 240.424C493.543 238.824 494.343 237.096 495.495 235.24C496.647 233.32 497.991 231.496 499.527 229.768C501.127 228.04 502.855 226.632 504.711 225.544C506.567 224.456 508.423 223.912 510.279 223.912C511.047 223.912 511.719 224.008 512.295 224.2C513.063 224.456 513.703 224.936 514.215 225.64C514.791 226.28 515.079 227.112 515.079 228.136C515.079 229.224 514.791 229.832 514.215 229.96C513.703 230.088 513.447 229.96 513.447 229.576C513.447 229.448 513.447 229.32 513.447 229.192C513.511 229.064 513.543 228.968 513.543 228.904C513.543 228.392 513.383 227.944 513.062 227.56C512.807 227.112 512.295 226.888 511.527 226.888C510.503 226.888 509.223 227.432 507.687 228.52C506.215 229.608 504.679 231.08 503.079 232.936C501.543 234.728 500.167 236.712 498.951 238.888C497.799 241.064 497.031 243.24 496.647 245.416C496.583 245.736 496.519 246.056 496.455 246.376C496.455 246.632 496.455 246.92 496.455 247.24C496.455 248.712 496.775 249.96 497.415 250.984C498.119 251.944 499.207 252.424 500.679 252.424C502.471 252.424 504.199 251.752 505.863 250.408C507.527 249 508.999 247.336 510.279 245.416C511.623 243.496 512.615 241.8 513.255 240.328C513.767 239.176 514.119 238.184 514.311 237.352C514.503 236.52 514.599 235.816 514.599 235.24C514.599 234.728 514.535 234.28 514.406 233.896C514.343 233.512 514.247 233.192 514.119 232.936C513.991 232.552 513.927 232.264 513.927 232.072C513.927 231.56 514.119 231.144 514.503 230.824C514.951 230.504 515.399 230.344 515.847 230.344C516.231 230.344 516.647 230.472 517.095 230.728C517.607 230.856 518.311 230.952 519.207 231.016C520.103 231.08 521.063 231.112 522.087 231.112C523.175 231.112 524.263 231.08 525.351 231.016C526.503 230.952 527.495 230.824 528.327 230.632C528.455 230.568 528.647 230.536 528.903 230.536C529.351 230.536 529.575 230.664 529.575 230.92C529.575 231.176 529.351 231.4 528.903 231.592C526.663 232.616 524.647 233.16 522.855 233.224C521.127 233.288 519.623 233.32 518.343 233.32C518.471 234.92 518.119 236.648 517.286 238.504C516.455 240.296 515.591 241.896 514.695 243.304C513.607 244.904 512.359 246.536 510.951 248.2C509.543 249.864 507.975 251.272 506.247 252.424C504.519 253.512 502.567 254.056 500.391 254.056ZM522.527 254.248C522.079 254.248 521.951 254.024 522.143 253.576C522.335 253.192 522.687 252.328 523.199 250.984C523.711 249.576 524.287 247.912 524.927 245.992C525.631 244.072 526.335 242.088 527.039 240.04C527.743 237.992 528.383 236.072 528.959 234.28C529.599 232.488 530.111 231.08 530.495 230.056C530.623 229.672 530.751 229.128 530.879 228.424C531.007 227.656 531.263 226.984 531.647 226.408C532.095 225.768 532.831 225.448 533.855 225.448C535.775 225.448 536.735 225.896 536.735 226.792C536.735 227.112 536.575 227.656 536.255 228.424C535.487 230.152 534.655 232.136 533.759 234.376C532.863 236.616 532.063 238.728 531.359 240.712C530.655 242.696 530.111 244.232 529.727 245.32C530.367 244.424 531.391 243.144 532.799 241.48C534.271 239.816 535.903 238.024 537.695 236.104C539.487 234.184 541.343 232.328 543.263 230.536C545.247 228.744 547.071 227.304 548.735 226.216C550.463 225.064 551.935 224.488 553.151 224.488C554.687 224.488 555.455 225.32 555.455 226.984C555.455 227.56 555.295 228.424 554.975 229.576C554.399 231.176 553.663 232.744 552.767 234.28C551.871 235.752 551.071 237.32 550.367 238.984C549.151 241.992 548.447 244.424 548.255 246.28C548.191 246.536 548.159 246.792 548.159 247.048C548.159 247.24 548.159 247.464 548.159 247.72C548.159 250.28 549.023 251.56 550.751 251.56C551.711 251.56 552.991 250.984 554.591 249.832C556.191 248.68 557.823 247.304 559.487 245.704C561.215 244.104 562.751 242.568 564.095 241.096C565.439 239.56 566.367 238.408 566.879 237.64C567.071 237.448 567.263 237.352 567.455 237.352C567.711 237.352 567.903 237.448 568.031 237.64C568.223 237.832 568.255 238.088 568.127 238.408C567.551 239.496 566.559 240.872 565.151 242.536C563.807 244.136 562.303 245.768 560.639 247.432C558.975 249.032 557.343 250.408 555.743 251.56C554.783 252.2 553.599 252.776 552.191 253.288C550.783 253.8 549.375 254.024 547.967 253.96C546.175 253.768 544.895 253.16 544.127 252.136C543.359 251.048 542.975 249.768 542.975 248.296C542.975 246.568 543.295 244.744 543.935 242.824C544.639 240.84 545.407 238.984 546.239 237.256C547.071 235.528 547.743 234.216 548.255 233.32C548.767 232.296 549.023 231.496 549.023 230.92C549.023 230.408 548.799 230.152 548.351 230.152C547.903 230.152 547.231 230.44 546.335 231.016C545.439 231.592 544.223 232.584 542.687 233.992C541.279 235.208 539.775 236.808 538.175 238.792C536.575 240.712 535.007 242.696 533.471 244.744C531.999 246.792 530.687 248.552 529.535 250.024C528.447 251.496 527.679 252.36 527.231 252.616C526.911 252.808 526.175 253.128 525.023 253.576C523.935 254.024 523.103 254.248 522.527 254.248ZM566.427 257.8C565.723 257.8 565.019 257.704 564.315 257.512C563.611 257.32 563.099 256.936 562.779 256.36C562.523 255.848 562.555 255.208 562.875 254.44C563.195 253.736 563.643 253.096 564.219 252.52C564.731 252.008 565.371 251.496 566.139 250.984C566.971 250.472 567.835 250.056 568.731 249.736H568.923C569.243 249.736 569.403 249.864 569.403 250.12C569.403 250.312 569.275 250.504 569.019 250.696C567.867 251.272 566.971 251.976 566.331 252.808C565.883 253.32 565.659 253.864 565.659 254.44C565.659 255.464 566.267 255.976 567.483 255.976C568.827 255.976 570.267 255.56 571.803 254.728C573.403 253.96 574.907 252.936 576.315 251.656C577.787 250.312 578.971 248.904 579.867 247.432C580.763 245.96 581.211 244.552 581.211 243.208C581.211 242.312 580.731 241.512 579.771 240.808C578.811 240.04 577.755 239.368 576.603 238.792C575.451 238.152 574.587 237.64 574.011 237.256C573.307 236.744 572.667 236.232 572.091 235.72C571.515 235.144 571.067 234.536 570.747 233.896C570.235 234.792 569.563 235.88 568.731 237.16C567.963 238.376 567.035 239.656 565.947 241C565.563 241.384 565.179 241.576 564.795 241.576C564.411 241.576 564.219 241.416 564.219 241.096C564.219 240.904 564.379 240.584 564.699 240.136C566.427 238.088 567.707 236.2 568.539 234.472C569.371 232.744 569.947 231.432 570.267 230.536C570.523 228.68 571.387 226.92 572.859 225.256C574.331 223.592 576.123 222.152 578.235 220.936C580.347 219.656 582.491 218.664 584.667 217.96C586.907 217.256 588.891 216.904 590.619 216.904C592.347 216.904 593.883 217.224 595.227 217.864C596.571 218.504 597.243 219.528 597.243 220.936C597.243 221.704 597.019 222.536 596.571 223.432C595.995 224.648 595.035 225.736 593.691 226.696C593.627 226.76 593.531 226.792 593.403 226.792C592.891 226.792 592.635 226.568 592.635 226.12C592.635 225.8 592.795 225.48 593.115 225.16C593.627 224.712 594.043 224.168 594.363 223.528C594.683 222.888 594.843 222.28 594.843 221.704C594.843 220.552 594.171 219.976 592.827 219.976C591.867 219.976 590.747 220.168 589.467 220.552C588.187 220.872 586.939 221.288 585.723 221.8C584.571 222.248 583.611 222.664 582.843 223.048C581.243 223.816 579.771 224.776 578.427 225.928C577.083 227.016 575.803 228.392 574.587 230.056C573.755 231.144 573.339 232.168 573.339 233.128C573.339 234.28 574.107 235.336 575.643 236.296C577.243 237.192 578.811 238.056 580.347 238.888C581.947 239.72 583.291 240.616 584.379 241.576C585.467 242.536 586.011 243.688 586.011 245.032C586.011 246.504 585.083 248.264 583.227 250.312C582.075 251.592 580.507 252.808 578.523 253.96C576.603 255.112 574.555 256.04 572.379 256.744C570.203 257.448 568.219 257.8 566.427 257.8Z" fill="#FE3D2B"/>
<path d="M190.273 290.309H185.715V288.469H190.273C191.156 288.469 191.871 288.328 192.418 288.047C192.965 287.766 193.363 287.375 193.613 286.875C193.871 286.375 194 285.805 194 285.164C194 284.578 193.871 284.027 193.613 283.512C193.363 282.996 192.965 282.582 192.418 282.27C191.871 281.949 191.156 281.789 190.273 281.789H186.242V297H183.98V279.938H190.273C191.562 279.938 192.652 280.16 193.543 280.605C194.434 281.051 195.109 281.668 195.57 282.457C196.031 283.238 196.262 284.133 196.262 285.141C196.262 286.234 196.031 287.168 195.57 287.941C195.109 288.715 194.434 289.305 193.543 289.711C192.652 290.109 191.562 290.309 190.273 290.309ZM201.148 279V297H198.969V279H201.148ZM212.105 294.832V288.305C212.105 287.805 212.004 287.371 211.801 287.004C211.605 286.629 211.309 286.34 210.91 286.137C210.512 285.934 210.02 285.832 209.434 285.832C208.887 285.832 208.406 285.926 207.992 286.113C207.586 286.301 207.266 286.547 207.031 286.852C206.805 287.156 206.691 287.484 206.691 287.836H204.523C204.523 287.383 204.641 286.934 204.875 286.488C205.109 286.043 205.445 285.641 205.883 285.281C206.328 284.914 206.859 284.625 207.477 284.414C208.102 284.195 208.797 284.086 209.562 284.086C210.484 284.086 211.297 284.242 212 284.555C212.711 284.867 213.266 285.34 213.664 285.973C214.07 286.598 214.273 287.383 214.273 288.328V294.234C214.273 294.656 214.309 295.105 214.379 295.582C214.457 296.059 214.57 296.469 214.719 296.812V297H212.457C212.348 296.75 212.262 296.418 212.199 296.004C212.137 295.582 212.105 295.191 212.105 294.832ZM212.48 289.312L212.504 290.836H210.312C209.695 290.836 209.145 290.887 208.66 290.988C208.176 291.082 207.77 291.227 207.441 291.422C207.113 291.617 206.863 291.863 206.691 292.16C206.52 292.449 206.434 292.789 206.434 293.18C206.434 293.578 206.523 293.941 206.703 294.27C206.883 294.598 207.152 294.859 207.512 295.055C207.879 295.242 208.328 295.336 208.859 295.336C209.523 295.336 210.109 295.195 210.617 294.914C211.125 294.633 211.527 294.289 211.824 293.883C212.129 293.477 212.293 293.082 212.316 292.699L213.242 293.742C213.188 294.07 213.039 294.434 212.797 294.832C212.555 295.23 212.23 295.613 211.824 295.98C211.426 296.34 210.949 296.641 210.395 296.883C209.848 297.117 209.23 297.234 208.543 297.234C207.684 297.234 206.93 297.066 206.281 296.73C205.641 296.395 205.141 295.945 204.781 295.383C204.43 294.812 204.254 294.176 204.254 293.473C204.254 292.793 204.387 292.195 204.652 291.68C204.918 291.156 205.301 290.723 205.801 290.379C206.301 290.027 206.902 289.762 207.605 289.582C208.309 289.402 209.094 289.312 209.961 289.312H212.48ZM219.852 287.027V297H217.684V284.32H219.734L219.852 287.027ZM219.336 290.18L218.434 290.145C218.441 289.277 218.57 288.477 218.82 287.742C219.07 287 219.422 286.355 219.875 285.809C220.328 285.262 220.867 284.84 221.492 284.543C222.125 284.238 222.824 284.086 223.59 284.086C224.215 284.086 224.777 284.172 225.277 284.344C225.777 284.508 226.203 284.773 226.555 285.141C226.914 285.508 227.188 285.984 227.375 286.57C227.562 287.148 227.656 287.855 227.656 288.691V297H225.477V288.668C225.477 288.004 225.379 287.473 225.184 287.074C224.988 286.668 224.703 286.375 224.328 286.195C223.953 286.008 223.492 285.914 222.945 285.914C222.406 285.914 221.914 286.027 221.469 286.254C221.031 286.48 220.652 286.793 220.332 287.191C220.02 287.59 219.773 288.047 219.594 288.562C219.422 289.07 219.336 289.609 219.336 290.18ZM233.305 284.32V297H231.125V284.32H233.305ZM230.961 280.957C230.961 280.605 231.066 280.309 231.277 280.066C231.496 279.824 231.816 279.703 232.238 279.703C232.652 279.703 232.969 279.824 233.188 280.066C233.414 280.309 233.527 280.605 233.527 280.957C233.527 281.293 233.414 281.582 233.188 281.824C232.969 282.059 232.652 282.176 232.238 282.176C231.816 282.176 231.496 282.059 231.277 281.824C231.066 281.582 230.961 281.293 230.961 280.957ZM239.141 279V297H236.961V279H239.141ZM244.977 279V297H242.797V279H244.977ZM255.934 294.832V288.305C255.934 287.805 255.832 287.371 255.629 287.004C255.434 286.629 255.137 286.34 254.738 286.137C254.34 285.934 253.848 285.832 253.262 285.832C252.715 285.832 252.234 285.926 251.82 286.113C251.414 286.301 251.094 286.547 250.859 286.852C250.633 287.156 250.52 287.484 250.52 287.836H248.352C248.352 287.383 248.469 286.934 248.703 286.488C248.938 286.043 249.273 285.641 249.711 285.281C250.156 284.914 250.688 284.625 251.305 284.414C251.93 284.195 252.625 284.086 253.391 284.086C254.312 284.086 255.125 284.242 255.828 284.555C256.539 284.867 257.094 285.34 257.492 285.973C257.898 286.598 258.102 287.383 258.102 288.328V294.234C258.102 294.656 258.137 295.105 258.207 295.582C258.285 296.059 258.398 296.469 258.547 296.812V297H256.285C256.176 296.75 256.09 296.418 256.027 296.004C255.965 295.582 255.934 295.191 255.934 294.832ZM256.309 289.312L256.332 290.836H254.141C253.523 290.836 252.973 290.887 252.488 290.988C252.004 291.082 251.598 291.227 251.27 291.422C250.941 291.617 250.691 291.863 250.52 292.16C250.348 292.449 250.262 292.789 250.262 293.18C250.262 293.578 250.352 293.941 250.531 294.27C250.711 294.598 250.98 294.859 251.34 295.055C251.707 295.242 252.156 295.336 252.688 295.336C253.352 295.336 253.938 295.195 254.445 294.914C254.953 294.633 255.355 294.289 255.652 293.883C255.957 293.477 256.121 293.082 256.145 292.699L257.07 293.742C257.016 294.07 256.867 294.434 256.625 294.832C256.383 295.23 256.059 295.613 255.652 295.98C255.254 296.34 254.777 296.641 254.223 296.883C253.676 297.117 253.059 297.234 252.371 297.234C251.512 297.234 250.758 297.066 250.109 296.73C249.469 296.395 248.969 295.945 248.609 295.383C248.258 294.812 248.082 294.176 248.082 293.473C248.082 292.793 248.215 292.195 248.48 291.68C248.746 291.156 249.129 290.723 249.629 290.379C250.129 290.027 250.73 289.762 251.434 289.582C252.137 289.402 252.922 289.312 253.789 289.312H256.309ZM278.633 295.16V297H269.598V295.16H278.633ZM270.055 279.938V297H267.793V279.938H270.055ZM277.438 287.273V289.113H269.598V287.273H277.438ZM278.516 279.938V281.789H269.598V279.938H278.516ZM283.461 279V297H281.281V279H283.461ZM292.203 297.234C291.32 297.234 290.52 297.086 289.801 296.789C289.09 296.484 288.477 296.059 287.961 295.512C287.453 294.965 287.062 294.316 286.789 293.566C286.516 292.816 286.379 291.996 286.379 291.105V290.613C286.379 289.582 286.531 288.664 286.836 287.859C287.141 287.047 287.555 286.359 288.078 285.797C288.602 285.234 289.195 284.809 289.859 284.52C290.523 284.23 291.211 284.086 291.922 284.086C292.828 284.086 293.609 284.242 294.266 284.555C294.93 284.867 295.473 285.305 295.895 285.867C296.316 286.422 296.629 287.078 296.832 287.836C297.035 288.586 297.137 289.406 297.137 290.297V291.27H287.668V289.5H294.969V289.336C294.938 288.773 294.82 288.227 294.617 287.695C294.422 287.164 294.109 286.727 293.68 286.383C293.25 286.039 292.664 285.867 291.922 285.867C291.43 285.867 290.977 285.973 290.562 286.184C290.148 286.387 289.793 286.691 289.496 287.098C289.199 287.504 288.969 288 288.805 288.586C288.641 289.172 288.559 289.848 288.559 290.613V291.105C288.559 291.707 288.641 292.273 288.805 292.805C288.977 293.328 289.223 293.789 289.543 294.188C289.871 294.586 290.266 294.898 290.727 295.125C291.195 295.352 291.727 295.465 292.32 295.465C293.086 295.465 293.734 295.309 294.266 294.996C294.797 294.684 295.262 294.266 295.66 293.742L296.973 294.785C296.699 295.199 296.352 295.594 295.93 295.969C295.508 296.344 294.988 296.648 294.371 296.883C293.762 297.117 293.039 297.234 292.203 297.234ZM304.742 295.453C305.258 295.453 305.734 295.348 306.172 295.137C306.609 294.926 306.969 294.637 307.25 294.27C307.531 293.895 307.691 293.469 307.73 292.992H309.793C309.754 293.742 309.5 294.441 309.031 295.09C308.57 295.73 307.965 296.25 307.215 296.648C306.465 297.039 305.641 297.234 304.742 297.234C303.789 297.234 302.957 297.066 302.246 296.73C301.543 296.395 300.957 295.934 300.488 295.348C300.027 294.762 299.68 294.09 299.445 293.332C299.219 292.566 299.105 291.758 299.105 290.906V290.414C299.105 289.562 299.219 288.758 299.445 288C299.68 287.234 300.027 286.559 300.488 285.973C300.957 285.387 301.543 284.926 302.246 284.59C302.957 284.254 303.789 284.086 304.742 284.086C305.734 284.086 306.602 284.289 307.344 284.695C308.086 285.094 308.668 285.641 309.09 286.336C309.52 287.023 309.754 287.805 309.793 288.68H307.73C307.691 288.156 307.543 287.684 307.285 287.262C307.035 286.84 306.691 286.504 306.254 286.254C305.824 285.996 305.32 285.867 304.742 285.867C304.078 285.867 303.52 286 303.066 286.266C302.621 286.523 302.266 286.875 302 287.32C301.742 287.758 301.555 288.246 301.438 288.785C301.328 289.316 301.273 289.859 301.273 290.414V290.906C301.273 291.461 301.328 292.008 301.438 292.547C301.547 293.086 301.73 293.574 301.988 294.012C302.254 294.449 302.609 294.801 303.055 295.066C303.508 295.324 304.07 295.453 304.742 295.453ZM317.539 284.32V285.984H310.684V284.32H317.539ZM313.004 281.238H315.172V293.859C315.172 294.289 315.238 294.613 315.371 294.832C315.504 295.051 315.676 295.195 315.887 295.266C316.098 295.336 316.324 295.371 316.566 295.371C316.746 295.371 316.934 295.355 317.129 295.324C317.332 295.285 317.484 295.254 317.586 295.23L317.598 297C317.426 297.055 317.199 297.105 316.918 297.152C316.645 297.207 316.312 297.234 315.922 297.234C315.391 297.234 314.902 297.129 314.457 296.918C314.012 296.707 313.656 296.355 313.391 295.863C313.133 295.363 313.004 294.691 313.004 293.848V281.238ZM322.25 286.312V297H320.082V284.32H322.191L322.25 286.312ZM326.211 284.25L326.199 286.266C326.02 286.227 325.848 286.203 325.684 286.195C325.527 286.18 325.348 286.172 325.145 286.172C324.645 286.172 324.203 286.25 323.82 286.406C323.438 286.562 323.113 286.781 322.848 287.062C322.582 287.344 322.371 287.68 322.215 288.07C322.066 288.453 321.969 288.875 321.922 289.336L321.312 289.688C321.312 288.922 321.387 288.203 321.535 287.531C321.691 286.859 321.93 286.266 322.25 285.75C322.57 285.227 322.977 284.82 323.469 284.531C323.969 284.234 324.562 284.086 325.25 284.086C325.406 284.086 325.586 284.105 325.789 284.145C325.992 284.176 326.133 284.211 326.211 284.25ZM327.406 290.801V290.531C327.406 289.617 327.539 288.77 327.805 287.988C328.07 287.199 328.453 286.516 328.953 285.938C329.453 285.352 330.059 284.898 330.77 284.578C331.48 284.25 332.277 284.086 333.16 284.086C334.051 284.086 334.852 284.25 335.562 284.578C336.281 284.898 336.891 285.352 337.391 285.938C337.898 286.516 338.285 287.199 338.551 287.988C338.816 288.77 338.949 289.617 338.949 290.531V290.801C338.949 291.715 338.816 292.562 338.551 293.344C338.285 294.125 337.898 294.809 337.391 295.395C336.891 295.973 336.285 296.426 335.574 296.754C334.871 297.074 334.074 297.234 333.184 297.234C332.293 297.234 331.492 297.074 330.781 296.754C330.07 296.426 329.461 295.973 328.953 295.395C328.453 294.809 328.07 294.125 327.805 293.344C327.539 292.562 327.406 291.715 327.406 290.801ZM329.574 290.531V290.801C329.574 291.434 329.648 292.031 329.797 292.594C329.945 293.148 330.168 293.641 330.465 294.07C330.77 294.5 331.148 294.84 331.602 295.09C332.055 295.332 332.582 295.453 333.184 295.453C333.777 295.453 334.297 295.332 334.742 295.09C335.195 294.84 335.57 294.5 335.867 294.07C336.164 293.641 336.387 293.148 336.535 292.594C336.691 292.031 336.77 291.434 336.77 290.801V290.531C336.77 289.906 336.691 289.316 336.535 288.762C336.387 288.199 336.16 287.703 335.855 287.273C335.559 286.836 335.184 286.492 334.73 286.242C334.285 285.992 333.762 285.867 333.16 285.867C332.566 285.867 332.043 285.992 331.59 286.242C331.145 286.492 330.77 286.836 330.465 287.273C330.168 287.703 329.945 288.199 329.797 288.762C329.648 289.316 329.574 289.906 329.574 290.531ZM331.871 282.445L334.145 279H336.758L333.617 282.445H331.871ZM343.836 287.027V297H341.668V284.32H343.719L343.836 287.027ZM343.32 290.18L342.418 290.145C342.426 289.277 342.555 288.477 342.805 287.742C343.055 287 343.406 286.355 343.859 285.809C344.312 285.262 344.852 284.84 345.477 284.543C346.109 284.238 346.809 284.086 347.574 284.086C348.199 284.086 348.762 284.172 349.262 284.344C349.762 284.508 350.188 284.773 350.539 285.141C350.898 285.508 351.172 285.984 351.359 286.57C351.547 287.148 351.641 287.855 351.641 288.691V297H349.461V288.668C349.461 288.004 349.363 287.473 349.168 287.074C348.973 286.668 348.688 286.375 348.312 286.195C347.938 286.008 347.477 285.914 346.93 285.914C346.391 285.914 345.898 286.027 345.453 286.254C345.016 286.48 344.637 286.793 344.316 287.191C344.004 287.59 343.758 288.047 343.578 288.562C343.406 289.07 343.32 289.609 343.32 290.18ZM357.289 284.32V297H355.109V284.32H357.289ZM354.945 280.957C354.945 280.605 355.051 280.309 355.262 280.066C355.48 279.824 355.801 279.703 356.223 279.703C356.637 279.703 356.953 279.824 357.172 280.066C357.398 280.309 357.512 280.605 357.512 280.957C357.512 281.293 357.398 281.582 357.172 281.824C356.953 282.059 356.637 282.176 356.223 282.176C355.801 282.176 355.48 282.059 355.262 281.824C355.051 281.582 354.945 281.293 354.945 280.957ZM365.844 295.453C366.359 295.453 366.836 295.348 367.273 295.137C367.711 294.926 368.07 294.637 368.352 294.27C368.633 293.895 368.793 293.469 368.832 292.992H370.895C370.855 293.742 370.602 294.441 370.133 295.09C369.672 295.73 369.066 296.25 368.316 296.648C367.566 297.039 366.742 297.234 365.844 297.234C364.891 297.234 364.059 297.066 363.348 296.73C362.645 296.395 362.059 295.934 361.59 295.348C361.129 294.762 360.781 294.09 360.547 293.332C360.32 292.566 360.207 291.758 360.207 290.906V290.414C360.207 289.562 360.32 288.758 360.547 288C360.781 287.234 361.129 286.559 361.59 285.973C362.059 285.387 362.645 284.926 363.348 284.59C364.059 284.254 364.891 284.086 365.844 284.086C366.836 284.086 367.703 284.289 368.445 284.695C369.188 285.094 369.77 285.641 370.191 286.336C370.621 287.023 370.855 287.805 370.895 288.68H368.832C368.793 288.156 368.645 287.684 368.387 287.262C368.137 286.84 367.793 286.504 367.355 286.254C366.926 285.996 366.422 285.867 365.844 285.867C365.18 285.867 364.621 286 364.168 286.266C363.723 286.523 363.367 286.875 363.102 287.32C362.844 287.758 362.656 288.246 362.539 288.785C362.43 289.316 362.375 289.859 362.375 290.414V290.906C362.375 291.461 362.43 292.008 362.539 292.547C362.648 293.086 362.832 293.574 363.09 294.012C363.355 294.449 363.711 294.801 364.156 295.066C364.609 295.324 365.172 295.453 365.844 295.453ZM380.809 294.832V288.305C380.809 287.805 380.707 287.371 380.504 287.004C380.309 286.629 380.012 286.34 379.613 286.137C379.215 285.934 378.723 285.832 378.137 285.832C377.59 285.832 377.109 285.926 376.695 286.113C376.289 286.301 375.969 286.547 375.734 286.852C375.508 287.156 375.395 287.484 375.395 287.836H373.227C373.227 287.383 373.344 286.934 373.578 286.488C373.812 286.043 374.148 285.641 374.586 285.281C375.031 284.914 375.562 284.625 376.18 284.414C376.805 284.195 377.5 284.086 378.266 284.086C379.188 284.086 380 284.242 380.703 284.555C381.414 284.867 381.969 285.34 382.367 285.973C382.773 286.598 382.977 287.383 382.977 288.328V294.234C382.977 294.656 383.012 295.105 383.082 295.582C383.16 296.059 383.273 296.469 383.422 296.812V297H381.16C381.051 296.75 380.965 296.418 380.902 296.004C380.84 295.582 380.809 295.191 380.809 294.832ZM381.184 289.312L381.207 290.836H379.016C378.398 290.836 377.848 290.887 377.363 290.988C376.879 291.082 376.473 291.227 376.145 291.422C375.816 291.617 375.566 291.863 375.395 292.16C375.223 292.449 375.137 292.789 375.137 293.18C375.137 293.578 375.227 293.941 375.406 294.27C375.586 294.598 375.855 294.859 376.215 295.055C376.582 295.242 377.031 295.336 377.562 295.336C378.227 295.336 378.812 295.195 379.32 294.914C379.828 294.633 380.23 294.289 380.527 293.883C380.832 293.477 380.996 293.082 381.02 292.699L381.945 293.742C381.891 294.07 381.742 294.434 381.5 294.832C381.258 295.23 380.934 295.613 380.527 295.98C380.129 296.34 379.652 296.641 379.098 296.883C378.551 297.117 377.934 297.234 377.246 297.234C376.387 297.234 375.633 297.066 374.984 296.73C374.344 296.395 373.844 295.945 373.484 295.383C373.133 294.812 372.957 294.176 372.957 293.473C372.957 292.793 373.09 292.195 373.355 291.68C373.621 291.156 374.004 290.723 374.504 290.379C375.004 290.027 375.605 289.762 376.309 289.582C377.012 289.402 377.797 289.312 378.664 289.312H381.184Z" fill="black"/>
<ellipse cx="90.1025" cy="249.05" rx="64.2563" ry="66.0444" fill="black"/>
<path d="M86.6027 196.687V189.647H95.1859V196.687C109.606 196.687 120.649 204.314 124.369 208.128L114.927 219.569C105.314 211.824 97.7609 212.235 95.1859 213.408V239.81C119.906 241.922 126.658 259.464 126.944 267.971C129.004 289.796 106.63 297.013 95.1859 297.893V308.453H86.6027V297.893C67.3763 295.78 56.2754 286.452 53.1282 282.052L62.5697 270.611C72.8696 281.172 82.8833 282.638 86.6027 282.052V253.89C86.6027 251.25 59.9947 257.41 56.5615 227.489C53.8148 203.552 75.4445 196.981 86.6027 196.687Z" fill="white" stroke="black"/>
<path d="M86.4914 238.782V213.481C82.0995 213.029 72.6019 214.644 71.2051 225.581C69.7663 236.846 80.7965 239.075 86.4914 238.782Z" fill="black"/>
<path d="M86.4914 213.261V238.782C80.7965 239.075 69.7663 236.846 71.2051 225.581C72.6438 214.317 82.6755 212.94 86.8718 213.527" stroke="black"/>
<path d="M96.2051 282.626V255.389C101.374 254.935 111.905 256.611 112.68 266.943C113.456 277.275 102.02 281.703 96.2051 282.626Z" fill="black" stroke="black"/>
</svg>
